<svg xmlns="http://www.w3.org/2000/svg" width="70" height="70" viewBox="0 0 70 70"><g><g><g><path fill="#eee8f8" d="M35 70c19.33 0 35-15.67 35-35S54.33 0 35 0 0 15.67 0 35s15.67 35 35 35z"/></g><g><g><path fill="#6832c2" d="M43.648 51.466l-18.465-1.32v-9.96l.463-.47a4.541 4.541 0 0 1 3.976-1.29l.05.008c.753.126 1.441.42 2.044.874l1.724 1.295c.113.085.243.147.381.181l5.09 1.273a3.486 3.486 0 0 1 2.476 2.32H34.08a1.068 1.068 0 0 0 0 2.136h8.542c.24 0 .48-.084.667-.234l2.95-2.36a4.074 4.074 0 0 1 3.082-.868 4.073 4.073 0 0 1 2.124.927zm-20.59-1.402h-3.923v-9.25h3.923zm26.523-9.134a6.19 6.19 0 0 0-4.684 1.317l-1.56 1.248a5.616 5.616 0 0 0-3.914-3.512l-4.878-1.22-1.548-1.162a6.838 6.838 0 0 0-2.975-1.272l-.05-.009a6.679 6.679 0 0 0-5.846 1.896l-.457.464h-5.602c-.59 0-1.067.477-1.067 1.067v11.385c0 .589.478 1.067 1.067 1.067h6.01l19.885 1.42c.3.022.6-.087.816-.294l8.894-8.539c.389-.373.438-.979.115-1.41a6.189 6.189 0 0 0-4.206-2.446z"/></g><g><path fill="#6832c2" d="M41.548 19.211v2.207a3.92 3.92 0 0 0-2.846 3.765v1.423c0 .59.478 1.067 1.068 1.067h4.625v.356a1.78 1.78 0 0 1-1.78 1.779H39.77a1.067 1.067 0 0 0 0 2.134h1.778V34c-3.615-.52-6.403-3.637-6.403-7.394 0-3.758 2.788-6.875 6.403-7.395zm8.539 7.395c0 3.757-2.788 6.875-6.404 7.394v-2.207a3.92 3.92 0 0 0 2.846-3.764v-1.423c0-.59-.478-1.068-1.067-1.068h-4.625v-.355a1.78 1.78 0 0 1 1.779-1.779h2.846a1.067 1.067 0 0 0 0-2.135h-1.779v-2.058c3.616.52 6.404 3.637 6.404 7.395zm-7.471 9.606c5.296 0 9.605-4.31 9.605-9.606 0-5.297-4.309-9.606-9.605-9.606-5.297 0-9.606 4.31-9.606 9.606 0 5.297 4.31 9.606 9.606 9.606z"/></g></g></g></g></svg>