<svg xmlns="http://www.w3.org/2000/svg" width="70" height="70" viewBox="0 0 70 70"><g><g><g><path fill="#eee8f8" d="M35 70c19.33 0 35-15.67 35-35S54.33 0 35 0 0 15.67 0 35s15.67 35 35 35z"/></g><g><g><path fill="#6832c2" d="M47.836 44.388a10.81 10.81 0 0 0-4.732-2.645v-8.368c2.004 1.097 4.4 2.848 4.732 4.362zm-6.434-2.775H36.1v-7.02a.851.851 0 0 0-1.702 0v7.028h-5.301V22.699c.196-.605 1.37-3.77 6.152-5.846 4.79 2.085 5.956 5.275 6.152 5.846zm-13.996.138a10.813 10.813 0 0 0-4.733 2.645v-6.659c.333-1.514 2.729-3.257 4.733-4.362zm15.698-10.297V22.58a.93.93 0 0 0 0-.204c-.043-.187-1.209-4.654-7.514-7.241a.85.85 0 0 0-.647 0c-6.305 2.553-7.462 7.054-7.513 7.241a.93.93 0 0 0 0 .204v8.875c-1.557.775-5.897 3.157-6.416 6.05a.755.755 0 0 0 0 .154v8.866a.851.851 0 0 0 1.523.52s2.646-3.405 5.812-3.728h6.05v2.749a.851.851 0 0 0 1.701 0v-2.749h6.093c3.165.358 5.786 3.693 5.812 3.727a.85.85 0 0 0 1.523-.519V37.65a.755.755 0 0 0 0-.153c-.528-2.885-4.867-5.267-6.424-6.042z"/><path fill="none" stroke="#6832c2" stroke-miterlimit="50" stroke-width=".4" d="M47.836 44.388a10.81 10.81 0 0 0-4.732-2.645v-8.368c2.004 1.097 4.4 2.848 4.732 4.362zm-6.434-2.775H36.1v-7.02a.851.851 0 0 0-1.702 0v7.028h-5.301V22.699c.196-.605 1.37-3.77 6.152-5.846 4.79 2.085 5.956 5.275 6.152 5.846zm-13.996.138a10.813 10.813 0 0 0-4.733 2.645v-6.659c.333-1.514 2.729-3.257 4.733-4.362zm15.698-10.297V22.58a.93.93 0 0 0 0-.204c-.043-.187-1.209-4.654-7.514-7.241a.85.85 0 0 0-.647 0c-6.305 2.553-7.462 7.054-7.513 7.241a.93.93 0 0 0 0 .204v8.875c-1.557.775-5.897 3.157-6.416 6.05a.755.755 0 0 0 0 .154v8.866a.851.851 0 0 0 1.523.52s2.646-3.405 5.812-3.728h6.05v2.749a.851.851 0 0 0 1.701 0v-2.749h6.093c3.165.358 5.786 3.693 5.812 3.727a.85.85 0 0 0 1.523-.519V37.65a.755.755 0 0 0 0-.153c-.528-2.885-4.867-5.267-6.424-6.042z"/></g><g><path fill="#6832c2" d="M31.08 48.05c-.469 0-.85.381-.85.85v4.894a.851.851 0 0 0 1.702 0V48.9c0-.47-.381-.851-.851-.851z"/><path fill="none" stroke="#6832c2" stroke-miterlimit="50" stroke-width=".4" d="M31.08 48.05c-.469 0-.85.381-.85.85v4.894a.851.851 0 0 0 1.702 0V48.9c0-.47-.381-.851-.851-.851z"/></g><g><path fill="#6832c2" d="M39.42 48.05c-.469 0-.85.381-.85.85v4.894a.851.851 0 0 0 1.701 0V48.9c0-.47-.38-.851-.85-.851z"/><path fill="none" stroke="#6832c2" stroke-miterlimit="50" stroke-width=".4" d="M39.42 48.05c-.469 0-.85.381-.85.85v4.894a.851.851 0 0 0 1.701 0V48.9c0-.47-.38-.851-.85-.851z"/></g><g><path fill="#6832c2" d="M35.255 27.878a2.093 2.093 0 1 1-.001-4.185 2.093 2.093 0 0 1 0 4.185zm0-5.888a3.795 3.795 0 1 0 3.795 3.795 3.805 3.805 0 0 0-3.795-3.795z"/><path fill="none" stroke="#6832c2" stroke-miterlimit="50" stroke-width=".4" d="M35.255 27.878a2.093 2.093 0 1 1-.001-4.185 2.093 2.093 0 0 1 0 4.185zm0-5.888a3.795 3.795 0 1 0 3.795 3.795 3.805 3.805 0 0 0-3.795-3.795z"/></g></g></g></g></svg>