<svg xmlns="http://www.w3.org/2000/svg" width="15" height="15" viewBox="0 0 15 15"><g><g><path fill="#44c7ff" d="M14.714 11.621c0 .376-.167 1.108-.324 1.453-.22.512-.804.846-1.275 1.107-.616.335-1.243.533-1.943.533-.972 0-1.85-.397-2.738-.72a9.768 9.768 0 0 1-1.83-.868c-1.776-1.097-3.918-3.24-5.016-5.016a9.77 9.77 0 0 1-.867-1.83C.397 5.393 0 4.516 0 3.544c0-.7.199-1.327.533-1.944.261-.47.596-1.056 1.108-1.275C1.986.167 2.717 0 3.093 0c.074 0 .147 0 .22.031.22.074.45.586.554.795.334.595.658 1.201 1.003 1.787.167.271.48.606.48.93 0 .637-1.89 1.567-1.89 2.132 0 .282.26.648.407.898 1.055 1.902 2.372 3.22 4.274 4.275.25.146.617.407.899.407.564 0 1.494-1.891 2.132-1.891.324 0 .658.313.93.48.585.345 1.191.67 1.787 1.004.209.104.72.334.794.553a.534.534 0 0 1 .031.22z"/></g></g></svg>