<svg xmlns="http://www.w3.org/2000/svg" xmlns:xlink="http://www.w3.org/1999/xlink" width="20" height="20" viewBox="0 0 20 20"><defs><path id="xcqya" d="M1335 2020c0-5.523 4.477-10 10-10s10 4.477 10 10-4.477 10-10 10-10-4.477-10-10z"/><path id="xcqyb" d="M1348.134 2020.883c-.183.268-.275.633-.275 1.094 0 .462.092.829.275 1.102.184.273.436.41.756.41s.572-.137.755-.41c.184-.273.276-.64.276-1.102 0-.461-.092-.826-.276-1.094a.868.868 0 0 0-.755-.403.868.868 0 0 0-.756.403zm2.818-1.095c.508.546.763 1.276.763 2.19 0 .922-.255 1.657-.763 2.203-.508.546-1.196.819-2.062.819-.866 0-1.556-.273-2.07-.82-.513-.545-.77-1.28-.77-2.203 0-.913.257-1.643.77-2.189.514-.546 1.204-.82 2.07-.82.866 0 1.553.274 2.062.82zm-3.58-4.746h1.923l-6.957 9.901h-1.937zm-7.289 1.872c-.183.268-.275.633-.275 1.094 0 .462.092.83.275 1.102.184.273.436.41.756.41s.572-.137.756-.41c.183-.273.275-.64.275-1.102 0-.46-.092-.826-.275-1.094a.868.868 0 0 0-.756-.403.868.868 0 0 0-.756.403zm2.818-1.095c.509.546.763 1.276.763 2.19 0 .922-.254 1.657-.763 2.203-.508.546-1.196.82-2.062.82-.866 0-1.556-.274-2.07-.82-.512-.546-.769-1.28-.769-2.204 0-.913.257-1.643.77-2.189s1.203-.819 2.069-.819c.866 0 1.554.273 2.062.82z"/></defs><g><g transform="translate(-1335 -2010)"><g><use fill="#44c7ff" xlink:href="#xcqya"/></g><g><use fill="#fff" xlink:href="#xcqyb"/></g></g></g></svg>