<svg xmlns="http://www.w3.org/2000/svg" xmlns:xlink="http://www.w3.org/1999/xlink" width="70" height="70" viewBox="0 0 70 70"><defs><path id="4o8ra" d="M524 1076c0-19.33 15.67-35 35-35s35 15.67 35 35-15.67 35-35 35-35-15.67-35-35z"/><path id="4o8rb" d="M569.25 1088.056l-9.232 6.396-9.25-6.394a8.064 8.064 0 0 1-3.465-6.621v-15.527h25.432v15.51c0 2.65-1.302 5.13-3.486 6.636zm-12.796-27.104l3.565-1.474 3.57 1.475a10.391 10.391 0 0 0 9.146-.638v3.291h-25.432v-3.29a10.396 10.396 0 0 0 9.151.636zm17.978-3.73a1.152 1.152 0 0 0-1.171.037l-1.444.913a8.073 8.073 0 0 1-7.359.65l-4.004-1.655a1.15 1.15 0 0 0-.88 0l-4 1.654a8.076 8.076 0 0 1-7.363-.649l-1.444-.913a1.152 1.152 0 0 0-1.767.973v23.205c0 3.394 1.665 6.577 4.455 8.514l9.904 6.849c.39.27.921.27 1.311 0l9.881-6.85a10.365 10.365 0 0 0 4.477-8.53v-23.188c0-.42-.228-.807-.596-1.01z"/><path id="4o8rc" d="M551.913 1078.575c0-4.054 3.01-7.418 6.915-7.979.38 0 .771-.097 1.152-.097.388 0 .764.097 1.152.097 3.904.56 6.915 3.925 6.915 7.979 0 4.445-3.62 8.062-8.067 8.062-4.448 0-8.067-3.617-8.067-8.062zm8.062-10.365c-5.715 0-10.365 4.65-10.365 10.365s4.65 10.365 10.365 10.365 10.365-4.65 10.365-10.365-4.65-10.365-10.365-10.365z"/><path id="4o8rd" d="M565.438 1076.562a.653.653 0 0 1-.189.458l-5.791 5.791a.653.653 0 0 1-.916 0l-3.353-3.353a.653.653 0 0 1 0-.916l.915-.916a.653.653 0 0 1 .916 0l1.98 1.987 4.418-4.424a.653.653 0 0 1 .915 0l.916.915c.121.122.189.29.189.458z"/></defs><g><g opacity=".11" transform="translate(-524 -1041)"><use fill="#6832c2" xlink:href="#4o8ra"/></g><g transform="translate(-524 -1041)"><g><use fill="#6832c2" xlink:href="#4o8rb"/></g><g><use fill="#6832c2" xlink:href="#4o8rc"/></g><g><use fill="#6832c2" xlink:href="#4o8rd"/></g></g></g></svg>