<svg xmlns="http://www.w3.org/2000/svg" xmlns:xlink="http://www.w3.org/1999/xlink" width="70" height="70" viewBox="0 0 70 70"><defs><path id="2v6ta" d="M1335 1362c0-19.33 15.67-35 35-35s35 15.67 35 35-15.67 35-35 35-35-15.67-35-35z"/><path id="2v6tb" d="M1366.945 1357.524h-3.558a1.067 1.067 0 0 0 0 2.135h1.779v1.423a1.067 1.067 0 0 0 2.135 0v-1.443a3.206 3.206 0 0 0 2.846-3.182v-1.067c0-.59-.478-1.068-1.067-1.068h-4.625c0-.588.478-1.067 1.067-1.067h3.558a1.067 1.067 0 0 0 0-2.135h-1.78v-1.423a1.067 1.067 0 0 0-2.134 0v1.444a3.206 3.206 0 0 0-2.846 3.181v1.068c0 .59.478 1.067 1.067 1.067h4.625c0 .589-.478 1.067-1.067 1.067z"/><path id="2v6tc" d="M1386.865 1370.58l-1.008 1.17h-1.126c-.59 0-1.068.478-1.068 1.067v5.19l-9.751-6.095a1.066 1.066 0 0 0-.566-.162h-6.819l-1.008-1.17v-1.524l3.851-2.287h8.245c.317 0 .617-.14.82-.384l1.78-2.134c.159-.192.247-.434.247-.684v-7.47h5.395l1.008 1.169zm-29.171-5.938h-2.348l-1.211-1.454v-15.599l1.211-1.454h21.779l1.212 1.454v15.599l-1.212 1.454h-8.042c-.192 0-.38.052-.545.15l-9.776 5.805v-4.887c0-.59-.479-1.068-1.068-1.068zm31.047-8.47l-1.586-1.84a1.068 1.068 0 0 0-.809-.37h-5.884v-6.76c0-.25-.088-.491-.248-.683l-1.779-2.135a1.067 1.067 0 0 0-.82-.384h-22.769c-.317 0-.617.14-.82.384l-1.779 2.135c-.16.192-.247.433-.247.683v16.365c0 .25.088.492.247.684l1.78 2.134c.202.243.503.384.819.384h1.779v5.693a1.067 1.067 0 0 0 1.612.917l5.148-3.056v.654c0 .256.092.503.259.697l1.586 1.84c.203.235.498.37.808.37h7.002l11.125 6.954a1.067 1.067 0 1 0 1.633-.905v-6.048h.548c.31 0 .606-.136.809-.37l1.586-1.84c.167-.195.259-.442.259-.698v-14.108c0-.256-.092-.503-.259-.697z"/></defs><g><g transform="translate(-1335 -1327)"><g><use fill="#eee8f8" xlink:href="#2v6ta"/></g><g><g><use fill="#6832c2" xlink:href="#2v6tb"/></g><g><use fill="#6832c2" xlink:href="#2v6tc"/></g></g></g></g></svg>