<svg xmlns="http://www.w3.org/2000/svg" xmlns:xlink="http://www.w3.org/1999/xlink" width="70" height="70" viewBox="0 0 70 70"><defs><path id="jrswa" d="M524 1362c0-19.33 15.67-35 35-35s35 15.67 35 35-15.67 35-35 35-35-15.67-35-35z"/><path id="jrswb" d="M574.913 1376.32l-2.39 1.593h-27.055l-2.391-1.593v-20.205h31.836zm-31.836-24.149l2.39-1.594h27.056l2.39 1.594v1.867h-31.836zm4.5-5.748c0-.19.155-.346.346-.346h2.77c.19 0 .345.155.345.346v2.077h-3.461zm9.692 0c0-.19.156-.346.346-.346h2.77c.19 0 .346.155.346.346v2.077h-3.462zm9.693 0c0-.19.155-.346.346-.346h2.769c.19 0 .346.155.346.346v2.077h-3.461zm9.575 4.328l-3.115-2.077a1.038 1.038 0 0 0-.576-.174h-.346v-2.077a2.426 2.426 0 0 0-2.423-2.423h-2.77a2.426 2.426 0 0 0-2.422 2.423v2.077h-2.077v-2.077a2.426 2.426 0 0 0-2.423-2.423h-2.77a2.426 2.426 0 0 0-2.423 2.423v2.077h-2.077v-2.077a2.426 2.426 0 0 0-2.423-2.423h-2.769a2.426 2.426 0 0 0-2.423 2.423v2.077h-.346c-.205 0-.405.06-.576.174l-3.115 2.077a1.038 1.038 0 0 0-.463.864v25.27c0 .347.174.671.463.864l3.115 2.077c.17.113.37.174.576.174h27.692c.205 0 .405-.06.576-.174l3.115-2.077c.29-.193.463-.517.463-.864v-25.27c0-.347-.174-.671-.463-.864z"/><path id="jrswc" d="M547.577 1360.267h3.461v3.461h-3.461zm-1.039 5.538h5.539c.573 0 1.038-.465 1.038-1.038v-5.539c0-.573-.465-1.038-1.038-1.038h-5.539c-.573 0-1.038.465-1.038 1.038v5.539c0 .573.465 1.038 1.038 1.038z"/><path id="jrswd" d="M557.267 1360.267h3.461v3.461h-3.461zm-1.039 5.538h5.539c.573 0 1.038-.465 1.038-1.038v-5.539c0-.573-.465-1.038-1.038-1.038h-5.539c-.573 0-1.038.465-1.038 1.038v5.539c0 .573.465 1.038 1.038 1.038z"/><path id="jrswe" d="M566.957 1360.267h3.461v3.461h-3.461zm-1.039 5.538h5.539c.573 0 1.038-.465 1.038-1.038v-5.539c0-.573-.465-1.038-1.038-1.038h-5.539c-.573 0-1.038.465-1.038 1.038v5.539c0 .573.465 1.038 1.038 1.038z"/><path id="jrswf" d="M547.577 1369.957h3.461v3.461h-3.461zm-1.039 5.538h5.539c.573 0 1.038-.465 1.038-1.038v-5.539c0-.573-.465-1.038-1.038-1.038h-5.539c-.573 0-1.038.465-1.038 1.038v5.539c0 .573.465 1.038 1.038 1.038z"/><path id="jrswg" d="M557.267 1369.957h3.461v3.461h-3.461zm-1.039 5.538h5.539c.573 0 1.038-.465 1.038-1.038v-5.539c0-.573-.465-1.038-1.038-1.038h-5.539c-.573 0-1.038.465-1.038 1.038v5.539c0 .573.465 1.038 1.038 1.038z"/><path id="jrswh" d="M572.06 1368.774a1.039 1.039 0 0 0-1.448.241l-2.637 3.692-1.226-1.635a1.038 1.038 0 0 0-1.661 1.247l2.077 2.769a1.049 1.049 0 0 0 1.676-.02l3.461-4.846a1.039 1.039 0 0 0-.241-1.448z"/></defs><g><g transform="translate(-524 -1327)"><g><use fill="#eee8f8" xlink:href="#jrswa"/></g><g><g><use fill="#6832c2" xlink:href="#jrswb"/></g><g><use fill="#6832c2" xlink:href="#jrswc"/></g><g><use fill="#6832c2" xlink:href="#jrswd"/></g><g><use fill="#6832c2" xlink:href="#jrswe"/></g><g><use fill="#6832c2" xlink:href="#jrswf"/></g><g><use fill="#6832c2" xlink:href="#jrswg"/></g><g><use fill="#6832c2" xlink:href="#jrswh"/></g></g></g></g></svg>