<svg xmlns="http://www.w3.org/2000/svg" width="70" height="70" viewBox="0 0 70 70"><g><g><g><path fill="#eee8f8" d="M35 70c19.33 0 35-15.67 35-35S54.33 0 35 0 0 15.67 0 35s15.67 35 35 35z"/></g><g><g><path fill="#6832c2" d="M48.968 35.768v-8.94c1.603.581 2.774 2.365 2.774 4.47 0 2.105-1.171 3.889-2.774 4.47zm-2.259 6.363L34.45 37.45V25.146l12.26-4.68zM31.42 48.16a.556.556 0 0 1-.126.466.723.723 0 0 1-.561.254h-1.706c-.305 0-.58-.183-.668-.444l-3.06-9.088h4.486zM20.409 34.772a2.157 2.157 0 0 1-2.15-2.16v-2.628c0-1.191.965-2.16 2.15-2.16h.696v6.948zm2.965-9.276h8.818V37.1h-8.818zM54 31.297c0-3.384-2.172-6.21-5.032-6.807v-4.563a1.887 1.887 0 0 0-2.56-1.763L33.111 23.24H22.243a1.13 1.13 0 0 0-1.129 1.13v1.2h-.699A4.42 4.42 0 0 0 16 29.983v2.626a4.42 4.42 0 0 0 4.415 4.416h.7v1.2c0 .623.505 1.129 1.128 1.129h.67l3.305 9.793c.4 1.184 1.528 1.98 2.808 1.98h1.706c.896 0 1.734-.39 2.298-1.068a2.82 2.82 0 0 0 .61-2.323l-1.56-8.382h1.032l13.295 5.075a1.886 1.886 0 0 0 2.56-1.763v-4.562c2.86-.598 5.033-3.423 5.033-6.808z"/></g></g></g></g></svg>