<?xml version="1.0" encoding="UTF-8"?>
<svg width="172px" height="45px" viewBox="0 0 172 45" version="1.1" xmlns="http://www.w3.org/2000/svg" xmlns:xlink="http://www.w3.org/1999/xlink">
    <!-- Generator: Sketch 49.3 (51167) - http://www.bohemiancoding.com/sketch -->
    <title>CashDuck-logo</title>
    <desc>Created with Sketch.</desc>
    <defs>
        <linearGradient x1="-15.0677937%" y1="34.2018153%" x2="79.6765184%" y2="70.8484591%" id="linearGradient-1">
            <stop stop-color="#FCB614" offset="0%"></stop>
            <stop stop-color="#FCB614" offset="1.1%"></stop>
            <stop stop-color="#F6921E" offset="23.08%"></stop>
            <stop stop-color="#F37321" offset="73.54%"></stop>
            <stop stop-color="#F16122" offset="100%"></stop>
        </linearGradient>
        <linearGradient x1="61.3096787%" y1="70.6968231%" x2="-12.5076199%" y2="-25.1309882%" id="linearGradient-2">
            <stop stop-color="#FAD961" offset="0%"></stop>
            <stop stop-color="#F76B1C" offset="100%"></stop>
        </linearGradient>
        <linearGradient x1="8.56396033%" y1="22.0104078%" x2="91.4306638%" y2="77.9795637%" id="linearGradient-3">
            <stop stop-color="#5F6062" offset="0%"></stop>
            <stop stop-color="#424244" offset="31.32%"></stop>
            <stop stop-color="#2C292A" offset="62.09%"></stop>
            <stop stop-color="#231F20" offset="100%"></stop>
        </linearGradient>
    </defs>
    <g id="Page-1" stroke="none" stroke-width="1" fill="none" fill-rule="evenodd">
        <g id="Cashduck-Desktop-" transform="translate(-375.000000, -13.000000)">
            <g id="header">
                <g id="CashDuck-logo" transform="translate(375.000000, 13.000000)">
                    <g id="Group-26" fill-rule="nonzero">
                        <g id="cashduck-copy">
                            <path d="M49.2686538,7.99892308 C49.2686538,12.2968269 45.7843846,15.7810962 41.4869423,15.7810962 C40.0944808,15.7810962 38.7874038,15.4153846 37.6564038,14.7748846 C37.6352885,14.7626538 37.6168846,14.7376731 37.5920769,14.7378462 C37.0118654,14.7392308 35.2486154,15.8855192 34.8334615,15.5048077 C34.4966538,15.1963269 35.3071154,13.2475385 35.3055577,12.7275 C35.3055577,12.7028654 35.2752115,12.6881538 35.2605577,12.6684231 C34.2838846,11.3676346 33.7045962,9.75086538 33.7045962,7.99898077 C33.7045962,3.70136538 37.1888654,0.217269231 41.4869423,0.217269231 C45.7844423,0.217153846 49.2686538,3.70125 49.2686538,7.99892308 Z" id="Shape" fill="#44C7FF"></path>
                            <path d="M44.5750385,9.72830769 C44.5750385,10.2008654 44.4531923,10.62525 44.2100769,11.0021538 C43.9666731,11.3785962 43.6105962,11.6734615 43.1415577,11.8866923 C42.6728077,12.0998077 42.1164808,12.2060192 41.4735,12.2060192 C40.7028462,12.2060192 40.0669038,12.0605769 39.5660192,11.7692308 C39.2105769,11.5598077 38.9221154,11.2799423 38.7001731,10.9298654 C38.4778846,10.5801923 38.3670577,10.2399231 38.3670577,9.90957692 C38.3670577,9.71775 38.4338077,9.5535 38.5669615,9.41659615 C38.7001731,9.27992308 38.8694423,9.21161538 39.0758077,9.21161538 C39.2426538,9.21161538 39.3838269,9.26475 39.4992115,9.37113462 C39.6146538,9.47780769 39.71325,9.63594231 39.795,9.84571154 C39.8945192,10.0943077 40.002,10.3022308 40.1174423,10.4689038 C40.2328846,10.6360962 40.3954615,10.7738654 40.6051731,10.8819231 C40.8145962,10.9903269 41.0901346,11.0445 41.4312115,11.0445 C41.8999615,11.0445 42.2811346,10.9351731 42.5741538,10.71675 C42.8671731,10.4982692 43.0134808,10.2257885 43.0134808,9.89878846 C43.0134808,9.63946154 42.9345,9.42911538 42.7764808,9.26728846 C42.6185192,9.10563462 42.4142885,8.98240385 42.1635,8.89684615 C41.9130577,8.81175 41.5783846,8.72111538 41.15925,8.62511538 C40.5980192,8.49392308 40.1280577,8.34023077 39.7495962,8.16432692 C39.3711346,7.98842308 39.0711346,7.74871154 38.8491346,7.44513462 C38.6271346,7.14126923 38.5160192,6.76373077 38.5160192,6.31246154 C38.5160192,5.88276923 38.6333077,5.50078846 38.8675385,5.16686538 C39.1024038,4.833 39.4413462,4.57609615 39.8855769,4.39684615 C40.3295192,4.21742308 40.8521538,4.12759615 41.4522692,4.12759615 C41.93175,4.12759615 42.3466154,4.18730769 42.6965769,4.30638462 C43.04625,4.42517308 43.3367885,4.58348077 43.5676731,4.78067308 C43.7988462,4.97786538 43.9678269,5.18469231 44.0740962,5.40126923 C44.1806538,5.61801923 44.2339038,5.82928846 44.2339038,6.03536538 C44.2339038,6.22378846 44.1674423,6.39346154 44.0342885,6.54421154 C43.9010769,6.69530769 43.7348654,6.77094231 43.5358269,6.77094231 C43.3549038,6.77094231 43.2170769,6.72565385 43.1228077,6.63501923 C43.0288269,6.54426923 42.9265385,6.39617308 42.8163462,6.19015385 C42.6745962,5.89517308 42.5037115,5.66503846 42.3050192,5.49975 C42.1056923,5.33475 41.7863654,5.25219231 41.3457692,5.25219231 C40.9370192,5.25219231 40.6078846,5.34201923 40.3574423,5.52132692 C40.107,5.70075 39.9814615,5.91646154 39.9814615,6.16875 C39.9814615,6.32503846 40.0243269,6.46021154 40.1094231,6.57380769 C40.1948654,6.68723077 40.3118077,6.78507692 40.4609423,6.86682692 C40.6103654,6.94857692 40.7612885,7.01255769 40.9140577,7.05848077 C41.0668269,7.10469231 41.3191154,7.17236538 41.6709231,7.26098077 C42.1111731,7.36419231 42.5101731,7.47790385 42.8671731,7.60205769 C43.2241731,7.72667308 43.5278654,7.87759615 43.7783654,8.05505769 C44.0288077,8.23280769 44.2241538,8.45734615 44.3644038,8.72925 C44.5049423,9.00098077 44.5750385,9.33415385 44.5750385,9.72830769 Z" id="Shape" fill="#FFFFFF"></path>
                            <path d="M42.3629423,3.55557692 C42.3629423,4.00321154 42.3614423,4.69223077 42.3614423,4.69223077 C42.0280385,4.69223077 40.7396538,4.54603846 40.7396538,4.54603846 C40.7396538,4.54603846 40.7424231,3.66928846 40.7424231,3.55557692 C40.7424231,3.10794231 41.1055385,2.74528846 41.5525385,2.74528846 C42.0001154,2.74523077 42.3629423,3.10794231 42.3629423,3.55557692 Z" id="Shape" fill="#FFFFFF"></path>
                            <path d="M40.7398846,12.9579808 C40.7398846,12.5105192 40.7410962,11.8216154 40.7410962,11.8216154 C41.0745,11.8216154 42.3628846,11.9676923 42.3628846,11.9676923 C42.3628846,11.9676923 42.3601154,12.8442692 42.3601154,12.9579808 C42.3601154,13.4056154 41.9972885,13.7684423 41.55,13.7684423 C41.1024231,13.7684423 40.7398846,13.4056154 40.7398846,12.9579808 Z" id="Shape" fill="#FFFFFF"></path>
                            <path d="M32.7815192,17.3877115 L36.17025,20.8182115 C36.17025,20.8182115 37.6643654,22.0599231 36.3803077,23.4280385 C35.0965385,24.7960385 32.7181731,27.1532885 32.7181731,27.1532885 L31.3082308,19.9764231 L32.7815192,17.3877115 Z" id="Shape" fill="url(#linearGradient-1)"></path>
                            <path d="M31.440956,17.2111728 C41.4313325,18.229811 38.5170457,28.3914934 29.0170457,27.8914934 L29.8039688,20.087519 C24.2350426,17.4908628 24.780705,16.5320808 31.440956,17.2111728 Z" id="Shape" fill="url(#linearGradient-1)"></path>
                            <path d="M24.7101346,25.35375 L10.8823846,17.4612115 C10.8823846,17.4612115 8.19911538,16.3560577 7.63084615,18.2819423 C7.06257692,20.2077692 6.52586538,23.649 7.94648077,25.9220769 C9.36715385,28.1950962 15.0178846,31.1625577 17.9540769,32.4255 C20.8899808,33.6883269 23.6997115,34.5405577 25.3414615,32.6462308 C26.9831538,30.75225 27.4568077,27.2479038 24.7101346,25.35375 Z" id="Shape" fill="#2C9DCD"></path>
                            <path d="M32.9499231,18.4450962 C32.9499231,23.2835769 28.2927115,27.2057885 22.5476538,27.2057885 C16.8025962,27.2057885 12.1453846,23.2835769 12.1453846,18.4450962 C12.1453846,13.6069038 16.8025962,9.68451923 22.5476538,9.68451923 C28.2927115,9.68451923 32.9499231,13.6069038 32.9499231,18.4450962 Z" id="Shape" fill="#F89F3D"></path>
                            <path d="M11.5033269,29.3421346 C10.9528269,32.2415769 8.34669231,33.90825 4.70503846,33.7830577 C4.70503846,33.7830577 3.18980769,33.825 2.70571154,34.4986154 C2.244,35.1411346 2.13773077,35.7193269 2.45342308,37.0662115 C2.76911538,38.4132115 4.66309615,43.6538654 11.0088462,44.5695 C17.3543077,45.4849615 23.4918462,44.2408269 27.1096154,40.6232308 C30.5819423,37.1504423 32.8868077,33.6147692 32.9498654,27.9004615 C33.0129231,22.1863269 32.9183654,17.7665769 32.9183654,17.7665769 L30.2663077,17.4822692 L12.1453846,18.5871346 C12.1453846,18.5871346 12.3661154,24.7962115 11.5033269,29.3421346 Z" id="Shape" fill="#FFD94F"></path>
                            <path d="M33.1009615,18.4450385 C33.1009615,23.0394808 33.5325577,32.8883654 28.0774615,32.8883654 C22.7919808,32.8883654 12.3790385,32.5213846 12.1153846,28.125 C12.1071346,27.984 12.1153846,18.7489038 12.1153846,18.6057692 C12.1153846,14.0117885 17.0448462,9.73557692 22.5,9.73557692 C28.5364586,9.73564076 33.1009615,13.8510577 33.1009615,18.4450385 Z" id="Shape" fill="url(#linearGradient-2)"></path>
                            <path d="M17.8279615,27.1848462 L4.00021154,19.2921346 C4.00021154,19.2921346 1.31688462,18.1872692 0.748326923,20.1131538 C0.180346154,22.0389808 -0.356653846,25.4799231 1.06430769,27.7529423 C2.48498077,30.0259615 8.13571154,32.9937115 11.0719038,34.2563654 C14.0078077,35.5190192 16.8175962,36.3715385 18.4592885,34.4773846 C20.1006923,32.583 20.5743462,29.079 17.8279615,27.1848462 Z" id="Shape" fill="#44C7FF"></path>
                            <path d="M30.642,21.8603077 C30.642,24.3709615 28.6068462,26.4064038 26.0959038,26.4064038 C23.5849615,26.4064038 21.5498077,24.3709615 21.5498077,21.8603077 C21.5498077,19.3495385 23.5849615,17.3142115 26.0959038,17.3142115 C28.6068462,17.3142115 30.642,19.3495385 30.642,21.8603077 Z" id="Shape" fill="#FFFFFF"></path>
                            <circle id="Oval" fill="#231F20" cx="26.9954423" cy="21.7496538" r="1.65732692"></circle>
                            <path d="M27.9130385,22.3547885 C27.5177885,22.9400192 26.72325,23.0938846 26.1378462,22.6986346 C25.5527308,22.3036731 25.39875,21.5086731 25.7937115,20.9234423 C26.1893077,20.3383269 26.9837885,20.1843462 27.5691923,20.5795962 C28.1543077,20.9748462 28.3083462,21.7695577 27.9130385,22.3547885 Z" id="Shape" fill="url(#linearGradient-3)"></path>
                        </g>
                    </g>
                    <path d="M60.152,27.646 C61.0466711,27.646 61.8166634,27.4956682 62.462,27.195 C63.1073366,26.8943318 63.7819965,26.4140033 64.486,25.754 L66.158,27.47 C64.5299919,29.274009 62.5536783,30.176 60.229,30.176 C57.9043217,30.176 55.9756743,29.4280075 54.443,27.932 C52.9103257,26.4359925 52.144,24.5440114 52.144,22.256 C52.144,19.9679886 52.9249922,18.061341 54.487,16.536 C56.0490078,15.010659 58.0216547,14.248 60.405,14.248 C62.7883452,14.248 64.7793253,15.1279912 66.378,16.888 L64.728,18.692 C63.994663,17.9879965 63.3016699,17.4966681 62.649,17.218 C61.9963301,16.9393319 61.2300044,16.8 60.35,16.8 C58.7953256,16.8 57.4900053,17.3023283 56.434,18.307 C55.3779947,19.3116717 54.85,20.5949922 54.85,22.157 C54.85,23.7190078 55.3743281,25.0243281 56.423,26.073 C57.4716719,27.1216719 58.7146595,27.646 60.152,27.646 Z M79.756,30 L77.512,30 L77.512,28.438 C76.5439951,29.5966725 75.2460081,30.176 73.618,30.176 C72.4006605,30.176 71.3923373,29.8313368 70.593,29.142 C69.7936626,28.4526632 69.394,27.5323391 69.394,26.381 C69.394,25.2296609 69.819329,24.3680029 70.67,23.796 C71.5206709,23.2239971 72.6719927,22.938 74.124,22.938 L77.314,22.938 L77.314,22.498 C77.314,20.9433256 76.4486753,20.166 74.718,20.166 C73.6326612,20.166 72.5033392,20.561996 71.33,21.354 L70.23,19.814 C71.6526737,18.684661 73.2659909,18.12 75.07,18.12 C76.4486735,18.12 77.5743289,18.4683298 78.447,19.165 C79.319671,19.8616701 79.756,20.9579925 79.756,22.454 L79.756,30 Z M77.292,25.644 L77.292,24.654 L74.52,24.654 C72.7453244,24.654 71.858,25.2113278 71.858,26.326 C71.858,26.8980029 72.0779978,27.3343318 72.518,27.635 C72.9580022,27.9356682 73.5703294,28.086 74.355,28.086 C75.1396705,28.086 75.8253304,27.8660022 76.412,27.426 C76.9986696,26.9859978 77.292,26.3920037 77.292,25.644 Z M91.6159999,29.175 C90.8093292,29.8423367 89.7753395,30.176 88.5139999,30.176 C87.663329,30.176 86.7796712,30.0220015 85.8629999,29.714 C84.9463287,29.4059985 84.1360034,28.9733361 83.4319999,28.416 L84.6199999,26.502 C85.9840067,27.5286718 87.3039935,28.042 88.5799999,28.042 C89.137336,28.042 89.5773316,27.913668 89.8999999,27.657 C90.2226682,27.4003321 90.3839999,27.074002 90.3839999,26.678 C90.3839999,26.0913304 89.6066743,25.5633357 88.0519999,25.094 C87.934666,25.0499998 87.8466669,25.0206667 87.7879999,25.006 C85.3533211,24.3459967 84.1359999,23.2460077 84.1359999,21.706 C84.1359999,20.6206612 84.5576624,19.7516699 85.4009999,19.099 C86.2443375,18.4463301 87.3406598,18.12 88.6899999,18.12 C90.03934,18.12 91.3153272,18.515996 92.5179999,19.308 L91.5939999,21.134 C90.6406618,20.5033302 89.6066721,20.188 88.4919999,20.188 C87.9053303,20.188 87.4286684,20.2943323 87.0619999,20.507 C86.6953314,20.7196677 86.5119999,21.0386645 86.5119999,21.464 C86.5119999,21.8453352 86.7026647,22.1239991 87.0839999,22.3 C87.3480012,22.4320007 87.7183309,22.5566661 88.1949999,22.674 C88.671669,22.7913339 89.0933314,22.9086661 89.4599999,23.026 C89.8266684,23.1433339 90.1823315,23.2753326 90.5269999,23.422 C90.8716683,23.5686674 91.2419979,23.7739987 91.6379999,24.038 C92.4300039,24.5660026 92.8259999,25.3873278 92.8259999,26.502 C92.8259999,27.6166722 92.4226706,28.5076633 91.6159999,29.175 Z M99.3839999,23.664 L99.3839999,30 L96.9199999,30 L96.9199999,13.698 L99.3839999,13.698 L99.3839999,20.43 C99.7360016,19.7113297 100.267663,19.1466687 100.979,18.736 C101.690337,18.3253313 102.456662,18.12 103.278,18.12 C104.598006,18.12 105.664996,18.5233293 106.479,19.33 C107.293004,20.1366707 107.7,21.302659 107.7,22.828 L107.7,30 L105.236,30 L105.236,23.576 C105.236,21.4199892 104.341342,20.342 102.552,20.342 C101.701329,20.342 100.96067,20.6243305 100.33,21.189 C99.69933,21.7536695 99.3839999,22.5786612 99.3839999,23.664 Z M124.422,16.635 C125.903341,17.9770067 126.644,19.8433214 126.644,22.234 C126.644,24.6246786 125.92534,26.5166597 124.488,27.91 C123.050659,29.3033403 120.850681,30 117.888,30 L112.784,30 L112.784,14.622 L118.064,14.622 C120.821347,14.622 122.940659,15.2929933 124.422,16.635 Z M124.026,22.3 C124.026,18.7799824 122.009353,17.02 117.976,17.02 L115.38,17.02 L115.38,27.558 L118.262,27.558 C120.124676,27.558 121.550995,27.1143378 122.541,26.227 C123.531005,25.3396622 124.026,24.0306753 124.026,22.3 Z M139.12,24.632 L139.12,18.296 L141.584,18.296 L141.584,30 L139.12,30 L139.12,27.866 C138.723998,28.5846703 138.17767,29.1493313 137.481,29.56 C136.78433,29.9706687 136.03267,30.176 135.226,30.176 C133.905993,30.176 132.839004,29.7726707 132.025,28.966 C131.210996,28.1593293 130.804,26.993341 130.804,25.468 L130.804,18.296 L133.268,18.296 L133.268,24.72 C133.268,26.8760108 134.162657,27.954 135.952,27.954 C136.802671,27.954 137.54333,27.6716695 138.174,27.107 C138.80467,26.5423305 139.12,25.7173388 139.12,24.632 Z M151.64,30.176 C150.011992,30.176 148.611339,29.6223389 147.438,28.515 C146.264661,27.4076611 145.678,25.9593423 145.678,24.17 C145.678,22.3806577 146.290327,20.9250056 147.515,19.803 C148.739673,18.6809944 150.231991,18.12 151.992,18.12 C153.752009,18.12 155.24066,18.7286606 156.458,19.946 L155.006,21.728 C153.993995,20.8479956 152.974672,20.408 151.948,20.408 C150.921328,20.408 150.030337,20.7489966 149.275,21.431 C148.519663,22.1130034 148.142,22.9929946 148.142,24.071 C148.142,25.1490054 148.515996,26.0619963 149.264,26.81 C150.012003,27.5580037 150.932328,27.932 152.025,27.932 C153.117672,27.932 154.147995,27.4333383 155.116,26.436 L156.568,28.02 C155.145326,29.4573405 153.502676,30.176 151.64,30.176 Z M162.884,30 L160.42,30 L160.42,13.676 L162.884,13.676 L162.884,23.268 L167.636,18.296 L170.804,18.296 L166.36,22.938 L171.134,30 L168.142,30 L164.666,24.874 L162.884,26.678 L162.884,30 Z" id="CashDuck" fill="#000000"></path>
                    <path d="M58.32,44 L57.49,42.14 L53.61,42.14 L52.79,44 L52.05,44 L55.2,37.01 L55.92,37.01 L59.07,44 L58.32,44 Z M53.88,41.52 L57.22,41.52 L55.54,37.74 L53.88,41.52 Z M61.22,37.01 L65.6,37.01 L65.6,37.63 L61.91,37.63 L61.91,40.32 L65.2,40.32 L65.2,40.94 L61.91,40.94 L61.91,44 L61.22,44 L61.22,37.01 Z M67.82,37.01 L72.2,37.01 L72.2,37.63 L68.51,37.63 L68.51,40.32 L71.8,40.32 L71.8,40.94 L68.51,40.94 L68.51,44 L67.82,44 L67.82,37.01 Z M74.42,37.01 L75.11,37.01 L75.11,44 L74.42,44 L74.42,37.01 Z M78.31,37.01 L79,37.01 L79,43.38 L82.08,43.38 L82.08,44 L78.31,44 L78.31,37.01 Z M84.44,37.01 L85.13,37.01 L85.13,44 L84.44,44 L84.44,37.01 Z M93.55,44 L92.72,42.14 L88.84,42.14 L88.02,44 L87.28,44 L90.43,37.01 L91.15,37.01 L94.3,44 L93.55,44 Z M89.11,41.52 L92.45,41.52 L90.77,37.74 L89.11,41.52 Z M94.81,37 L100.12,37 L100.12,37.63 L97.81,37.63 L97.81,44 L97.12,44 L97.12,37.63 L94.81,37.63 L94.81,37 Z M102.33,37.01 L107.01,37.01 L107.01,37.63 L103.02,37.63 L103.02,40.13 L106.59,40.13 L106.59,40.75 L103.02,40.75 L103.02,43.38 L107.14,43.38 L107.14,44 L102.33,44 L102.33,37.01 Z M118.17,37.615 C118.643336,38.0183354 118.88,38.5899963 118.88,39.33 C118.88,40.0966705 118.643336,40.6899979 118.17,41.11 C117.696664,41.5300021 117.026671,41.74 116.16,41.74 L114.27,41.74 L114.27,44 L113.58,44 L113.58,37.01 L116.16,37.01 C117.026671,37.01 117.696664,37.2116647 118.17,37.615 Z M117.675,40.665 C118.038335,40.3616652 118.22,39.9233362 118.22,39.35 C118.22,38.7899972 118.040002,38.3633348 117.68,38.07 C117.319998,37.7766652 116.803337,37.63 116.13,37.63 L114.27,37.63 L114.27,41.12 L116.13,41.12 C116.79667,41.12 117.311665,40.9683348 117.675,40.665 Z M125.87,44 L124.36,41.72 C124.146666,41.7333334 123.983334,41.74 123.87,41.74 L121.95,41.74 L121.95,44 L121.26,44 L121.26,37.01 L123.87,37.01 C124.743338,37.01 125.418331,37.2116647 125.895,37.615 C126.371669,38.0183354 126.61,38.5899963 126.61,39.33 C126.61,39.9100029 126.470001,40.3933314 126.19,40.78 C125.909999,41.1666686 125.510003,41.4366659 124.99,41.59 L126.67,44 L125.87,44 Z M123.87,41.12 C124.53667,41.12 125.049998,40.9683348 125.41,40.665 C125.770002,40.3616652 125.95,39.9233362 125.95,39.35 C125.95,38.7899972 125.770002,38.3633348 125.41,38.07 C125.049998,37.7766652 124.53667,37.63 123.87,37.63 L121.95,37.63 L121.95,41.12 L123.87,41.12 Z M134.295,37.425 C134.851669,37.7416683 135.293332,38.1699973 135.62,38.71 C135.946668,39.2500027 136.11,39.8433301 136.11,40.49 C136.11,41.1366699 135.946668,41.7333306 135.62,42.28 C135.293332,42.8266694 134.851669,43.2599984 134.295,43.58 C133.738331,43.9000016 133.12667,44.06 132.46,44.06 C131.79333,44.06 131.181669,43.9000016 130.625,43.58 C130.068331,43.2599984 129.626668,42.8266694 129.3,42.28 C128.973332,41.7333306 128.81,41.1366699 128.81,40.49 C128.81,39.8433301 128.973332,39.2500027 129.3,38.71 C129.626668,38.1699973 130.068331,37.7416683 130.625,37.425 C131.181669,37.1083317 131.79333,36.95 132.46,36.95 C133.12667,36.95 133.738331,37.1083317 134.295,37.425 Z M130.99,37.96 C130.536664,38.2200013 130.176668,38.5733311 129.91,39.02 C129.643332,39.4666689 129.51,39.956664 129.51,40.49 C129.51,41.023336 129.643332,41.5166644 129.91,41.97 C130.176668,42.4233356 130.536664,42.7816653 130.99,43.045 C131.443336,43.3083346 131.936664,43.44 132.47,43.44 C132.996669,43.44 133.484998,43.3083346 133.935,43.045 C134.385002,42.7816653 134.743332,42.4233356 135.01,41.97 C135.276668,41.5166644 135.41,41.023336 135.41,40.49 C135.41,39.956664 135.276668,39.4666689 135.01,39.02 C134.743332,38.5733311 134.385002,38.2200013 133.935,37.96 C133.484998,37.6999987 132.996669,37.57 132.47,37.57 C131.936664,37.57 131.443336,37.6999987 130.99,37.96 Z M143.4,40.58 L144.01,40.58 L144.01,43.14 C143.669998,43.4266681 143.275002,43.6516659 142.825,43.815 C142.374998,43.9783342 141.916669,44.06 141.45,44.06 C140.789997,44.06 140.181669,43.9000016 139.625,43.58 C139.068331,43.2599984 138.626668,42.8266694 138.3,42.28 C137.973332,41.7333306 137.81,41.1366699 137.81,40.49 C137.81,39.8433301 137.973332,39.2500027 138.3,38.71 C138.626668,38.1699973 139.071664,37.7416683 139.635,37.425 C140.198336,37.1083317 140.81333,36.95 141.48,36.95 C141.953336,36.95 142.411664,37.0333325 142.855,37.2 C143.298336,37.3666675 143.689998,37.5999985 144.03,37.9 L143.63,38.39 C143.343332,38.123332 143.013335,37.918334 142.64,37.775 C142.266665,37.6316659 141.880002,37.56 141.48,37.56 C140.939997,37.56 140.443336,37.6916654 139.99,37.955 C139.536664,38.2183347 139.176668,38.5733311 138.91,39.02 C138.643332,39.4666689 138.51,39.956664 138.51,40.49 C138.51,41.0300027 138.643332,41.5249977 138.91,41.975 C139.176668,42.4250022 139.538331,42.7816653 139.995,43.045 C140.451669,43.3083346 140.949997,43.44 141.49,43.44 C141.823335,43.44 142.154998,43.3850006 142.485,43.275 C142.815002,43.1649994 143.119999,43.010001 143.4,42.81 L143.4,40.58 Z M151.65,44 L150.14,41.72 C149.926666,41.7333334 149.763334,41.74 149.65,41.74 L147.73,41.74 L147.73,44 L147.04,44 L147.04,37.01 L149.65,37.01 C150.523338,37.01 151.198331,37.2116647 151.675,37.615 C152.151669,38.0183354 152.39,38.5899963 152.39,39.33 C152.39,39.9100029 152.250001,40.3933314 151.97,40.78 C151.689999,41.1666686 151.290003,41.4366659 150.77,41.59 L152.45,44 L151.65,44 Z M149.65,41.12 C150.31667,41.12 150.829998,40.9683348 151.19,40.665 C151.550002,40.3616652 151.73,39.9233362 151.73,39.35 C151.73,38.7899972 151.550002,38.3633348 151.19,38.07 C150.829998,37.7766652 150.31667,37.63 149.65,37.63 L147.73,37.63 L147.73,41.12 L149.65,41.12 Z M160.49,44 L159.66,42.14 L155.78,42.14 L154.96,44 L154.22,44 L157.37,37.01 L158.09,37.01 L161.24,44 L160.49,44 Z M156.05,41.52 L159.39,41.52 L157.71,37.74 L156.05,41.52 Z M163.39,37 L164.25,37 L166.99,42.25 L169.7,37 L170.56,37 L170.56,44 L169.92,44 L169.91,37.96 L167.17,43.25 L166.79,43.25 L164.04,37.96 L164.04,44 L163.39,44 L163.39,37 Z" id="Affiliate-program" fill="#000000"></path>
                </g>
            </g>
        </g>
    </g>
</svg>