<svg xmlns="http://www.w3.org/2000/svg" width="17" height="13" viewBox="0 0 17 13"><g><g><g><path fill="#44c7ff" d="M15.241 12.992c.372 0 .694-.123.968-.365L11.524 7.94l-.325.233c-.35.259-.635.46-.853.605a5.26 5.26 0 0 1-.872.443c-.363.15-.702.226-1.015.226H8.44c-.314 0-.652-.075-1.015-.226a5.243 5.243 0 0 1-.872-.443 21.74 21.74 0 0 1-.854-.605 40.51 40.51 0 0 0-.323-.234L.69 12.627c.274.242.596.365.968.365H15.24z"/></g><g><path fill="#44c7ff" d="M1.112 4.993A4.893 4.893 0 0 1 .18 4.19v7.128l4.13-4.13a319.19 319.19 0 0 0-3.198-2.195z"/></g><g><path fill="#44c7ff" d="M15.795 4.993c-1.257.85-2.325 1.583-3.205 2.197l4.128 4.128V4.19a5.093 5.093 0 0 1-.923.803z"/></g><g><path fill="#44c7ff" d="M15.24 0H1.656C1.183 0 .818.16.563.48.308.8.18 1.2.18 1.68c0 .387.17.807.507 1.26.339.451.699.806 1.08 1.065.21.148.84.586 1.892 1.315a611.899 611.899 0 0 1 2.418 1.684c.03.02.076.054.137.098l.255.184c.2.144.366.261.498.35.132.09.292.19.48.3a2.8 2.8 0 0 0 .53.25c.167.055.32.082.462.082h.019c.141 0 .295-.027.46-.083.167-.055.344-.138.532-.249.187-.11.347-.21.48-.3.132-.089.298-.206.498-.35a63.022 63.022 0 0 1 .392-.282l.934-.649 3.385-2.35a4.39 4.39 0 0 0 1.126-1.135c.3-.443.451-.907.451-1.393 0-.407-.146-.754-.438-1.043A1.427 1.427 0 0 0 15.24 0z"/></g></g></g></svg>