<svg xmlns="http://www.w3.org/2000/svg" xmlns:xlink="http://www.w3.org/1999/xlink" width="20" height="20" viewBox="0 0 20 20"><defs><path id="fa50a" d="M1336 2047c0-5.523 4.477-10 10-10s10 4.477 10 10-4.477 10-10 10-10-4.477-10-10z"/><path id="fa50b" d="M1344.717 2045.539c.322.182.819.371 1.491.567.672.196 1.225.392 1.659.588.434.196.805.49 1.113.882.308.392.462.91.462 1.554 0 .821-.278 1.489-.833 2.002-.555.513-1.29.826-2.205.938v2.03h-1.61v-2.03a7.02 7.02 0 0 1-1.904-.518 6.228 6.228 0 0 1-1.61-.994l.882-1.806a5.963 5.963 0 0 0 1.708 1.078c.644.27 1.232.406 1.764.406.457 0 .814-.084 1.071-.252a.817.817 0 0 0 .385-.728.82.82 0 0 0-.259-.623 1.983 1.983 0 0 0-.658-.399c-.266-.103-.632-.22-1.099-.35a12.515 12.515 0 0 1-1.645-.56 2.894 2.894 0 0 1-1.099-.854c-.308-.383-.462-.891-.462-1.526 0-.765.264-1.402.791-1.911.527-.509 1.239-.828 2.135-.959v-1.904h1.61v1.89a7.62 7.62 0 0 1 1.61.364c.513.177.97.401 1.372.672l-.854 1.834a7.44 7.44 0 0 0-1.603-.735c-.565-.182-1.048-.273-1.449-.273-.383 0-.686.07-.91.21a.682.682 0 0 0-.336.616c0 .345.161.609.483.791z"/></defs><g><g transform="translate(-1336 -2037)"><use fill="#f5a623" xlink:href="#fa50a"/></g><g transform="translate(-1336 -2037)"><use fill="#fff" xlink:href="#fa50b"/></g></g></svg>