<svg xmlns="http://www.w3.org/2000/svg" xmlns:xlink="http://www.w3.org/1999/xlink" width="70" height="70" viewBox="0 0 70 70"><defs><path id="p14xa" d="M925 1362c0-19.33 15.67-35 35-35s35 15.67 35 35-15.67 35-35 35-35-15.67-35-35z"/><path id="p14xb" d="M974.771 1377.092c0 .983-.8 1.783-1.781 1.783a3.212 3.212 0 0 1-3.208-3.21v-.713h4.99zm-21.703 1.773a3.206 3.206 0 0 1-3.203-3.202v-24.903h17.792v24.903a5.295 5.295 0 0 0 1.07 3.202zm-6.758-25.615l-2.136-1.6v-3.914l2.136-1.601h24.913l2.136 1.6v3.914l-2.136 1.601H969.8v-2.49h.355a1.068 1.068 0 1 0 0-2.135h-22.778a1.068 1.068 0 1 0 0 2.135h.356v2.49zm29.528 19.567h-6.048v-17.432h1.779c.23 0 .455-.075.64-.214l2.847-2.134c.268-.202.426-.518.426-.854v-4.981c0-.336-.158-.652-.426-.854l-2.847-2.135a1.067 1.067 0 0 0-.64-.213h-25.616c-.23 0-.455.075-.64.213l-2.846 2.135a1.067 1.067 0 0 0-.427.854v4.98c0 .337.158.653.427.855l2.846 2.134c.185.139.41.214.64.214h1.78v20.278a5.343 5.343 0 0 0 5.336 5.337h19.923a3.918 3.918 0 0 0 3.913-3.913v-3.202c0-.59-.478-1.068-1.067-1.068z"/><path id="p14xc" d="M964.452 1368.55h-11.385a1.067 1.067 0 1 0 0 2.135h11.385a1.067 1.067 0 0 0 0-2.135z"/><path id="p14xd" d="M961.6 1372.82h-5.693a1.067 1.067 0 0 0 0 2.135h5.693a1.067 1.067 0 0 0 0-2.135z"/><path id="p14xe" d="M959.465 1361.784h-3.558a1.067 1.067 0 0 0 0 2.135h1.78v1.423a1.067 1.067 0 1 0 2.134 0v-1.443a3.206 3.206 0 0 0 2.846-3.182v-1.067c0-.59-.478-1.068-1.067-1.068h-4.625c0-.588.478-1.067 1.067-1.067h3.558a1.067 1.067 0 0 0 0-2.135h-1.78v-1.423a1.067 1.067 0 1 0-2.134 0v1.443a3.206 3.206 0 0 0-2.846 3.182v1.068c0 .59.478 1.067 1.067 1.067h4.625c0 .588-.478 1.067-1.067 1.067z"/></defs><g><g transform="translate(-925 -1327)"><g><use fill="#eee8f8" xlink:href="#p14xa"/></g><g><g><use fill="#6832c2" xlink:href="#p14xb"/></g><g><use fill="#6832c2" xlink:href="#p14xc"/></g><g><use fill="#6832c2" xlink:href="#p14xd"/></g><g><use fill="#6832c2" xlink:href="#p14xe"/></g></g></g></g></svg>