<svg xmlns="http://www.w3.org/2000/svg" width="70" height="70" viewBox="0 0 70 70"><g><g><g><path fill="#eee8f8" d="M35 70c19.33 0 35-15.67 35-35S54.33 0 35 0 0 15.67 0 35s15.67 35 35 35z"/></g><g><g><path fill="#6832c2" d="M48.77 46.923a.385.385 0 0 1-.385.385h-9.967A10.253 10.253 0 0 0 38.762 45h9.623c.212 0 .384.172.384.385zm-19.232 3.3a4.238 4.238 0 0 0 3.077-4.07v-1.538c0-.637-.516-1.153-1.153-1.153h-5v-.385c0-1.06.862-1.923 1.923-1.923h3.077a1.154 1.154 0 0 0 0-2.308h-1.924v-2.225a8.101 8.101 0 0 1 6.553 5.575 8.16 8.16 0 0 1 .36 2.837c-.198 3.873-3.138 7.034-6.913 7.577zm-9.23-5.608c0-4.061 3.014-7.432 6.923-7.994v2.386a4.238 4.238 0 0 0-3.077 4.07v1.538c0 .638.517 1.154 1.154 1.154h5v.385c0 1.06-.863 1.923-1.923 1.923h-3.077a1.154 1.154 0 0 0 0 2.308h1.923v2.225c-3.91-.562-6.923-3.933-6.923-7.995zM47.23 40.77v1.539a.385.385 0 0 1-.385.384h-8.255a10.45 10.45 0 0 0-.72-2.307h8.975c.212 0 .385.172.385.384zm1.154-5c.212 0 .384.173.384.385v1.538a.385.385 0 0 1-.384.385H36.452a10.545 10.545 0 0 0-2.267-2.075.385.385 0 0 1 .353-.233zm-1.164-4.23v1.538a.385.385 0 0 1-.385.385H33a.385.385 0 0 1-.385-.385v-1.539c0-.212.173-.384.385-.384h13.836c.212 0 .385.172.385.384zm1.164-5c.212 0 .384.172.384.384v1.539a.385.385 0 0 1-.384.384H34.538a.385.385 0 0 1-.384-.384v-1.539c0-.212.172-.385.384-.385zm-1.164-4.231v1.538a.385.385 0 0 1-.385.385H33a.385.385 0 0 1-.385-.385v-1.538c0-.212.173-.385.385-.385h13.836c.212 0 .385.173.385.385zm-13.067-4.616c0-.212.172-.384.384-.384h13.847c.212 0 .384.172.384.384v1.539a.385.385 0 0 1-.384.384H34.538a.385.385 0 0 1-.384-.384zm16.923 1.539v-1.539A2.695 2.695 0 0 0 48.385 15H34.538a2.695 2.695 0 0 0-2.692 2.692v1.539c0 .21.025.416.071.612a2.696 2.696 0 0 0-1.61 2.465v1.538c0 1.1.664 2.047 1.61 2.464a2.702 2.702 0 0 0-.07.613v1.539c0 .21.024.415.07.612a2.696 2.696 0 0 0-1.61 2.464v1.539c0 .52.15 1.005.405 1.417a10.378 10.378 0 0 0-2.327-.263C22.659 34.23 18 38.889 18 44.615S22.659 55 28.385 55c3.914 0 7.33-2.177 9.099-5.385h10.9a2.695 2.695 0 0 0 2.693-2.692v-1.538c0-1.1-.663-2.047-1.61-2.464a2.69 2.69 0 0 0 .071-.613v-1.539c0-.21-.025-.416-.07-.612a2.696 2.696 0 0 0 1.609-2.465v-1.538c0-1.1-.663-2.047-1.61-2.464.046-.197.071-.402.071-.613v-1.539c0-.21-.025-.415-.07-.612a2.696 2.696 0 0 0 1.609-2.464v-1.539c0-1.1-.663-2.047-1.61-2.464.046-.197.071-.402.071-.613v-1.538c0-.211-.025-.416-.07-.613a2.696 2.696 0 0 0 1.609-2.464z"/></g></g></g></g></svg>