<svg xmlns="http://www.w3.org/2000/svg" xmlns:xlink="http://www.w3.org/1999/xlink" width="96" height="24" viewBox="0 0 96 24"><defs><path id="7ottb" d="M467.19 733.889l-2.155 14.052a.445.445 0 0 0 .433.519h2.167a.735.735 0 0 0 .72-.631l2.125-13.8a.445.445 0 0 0-.432-.519h-2.425a.441.441 0 0 0-.433.379"/><path id="7ottc" d="M464.23 738.483h-2.514a.44.44 0 0 0-.432.378l-.111.721-.176-.261c-.544-.81-1.758-1.081-2.97-1.081-2.777 0-5.15 2.158-5.612 5.184-.24 1.51.101 2.952.936 3.959.768.925 1.862 1.31 3.167 1.31 2.239 0 3.48-1.474 3.48-1.474l-.112.716a.445.445 0 0 0 .433.519h2.264a.735.735 0 0 0 .72-.631l1.36-8.822a.445.445 0 0 0-.433-.518zm-3.514 5.015c-.242 1.471-1.38 2.459-2.832 2.459-.728 0-1.31-.24-1.685-.695-.37-.45-.51-1.093-.393-1.808.226-1.458 1.382-2.477 2.812-2.477.713 0 1.291.242 1.673.701.384.462.535 1.109.425 1.82z"/><path id="7ottd" d="M448.54 733.51h-5.251a.735.735 0 0 0-.72.631l-2.124 13.8a.445.445 0 0 0 .433.519h2.694a.514.514 0 0 0 .504-.442l.602-3.912a.735.735 0 0 1 .72-.632h1.662c3.459 0 5.455-1.715 5.976-5.116.235-1.487.01-2.655-.67-3.473-.746-.9-2.07-1.375-3.826-1.375zm.619 5.035c-.288 1.927-1.734 1.927-3.132 1.927h-.796l.558-3.598a.442.442 0 0 1 .434-.378h.365c.952 0 1.85 0 2.314.553.278.33.362.82.257 1.496z"/><path id="7otte" d="M440.175 738.49h-2.527a.725.725 0 0 0-.604.328l-3.486 5.262-1.477-5.057a.732.732 0 0 0-.699-.533h-2.484c-.3 0-.511.302-.414.593l2.782 8.372-2.617 3.786c-.205.297.002.708.357.708h2.525c.24 0 .463-.12.6-.322l8.404-12.433c.2-.297-.007-.704-.36-.704"/><path id="7ottf" d="M426.78 738.483h-2.514a.44.44 0 0 0-.432.378l-.11.721-.177-.261c-.544-.81-1.758-1.081-2.97-1.081-2.777 0-5.15 2.158-5.612 5.184-.24 1.51.101 2.952.936 3.959.767.925 1.862 1.31 3.167 1.31 2.239 0 3.48-1.474 3.48-1.474l-.112.716a.445.445 0 0 0 .433.519h2.264a.735.735 0 0 0 .72-.631l1.36-8.822a.445.445 0 0 0-.433-.518zm-3.514 5.015c-.242 1.471-1.38 2.459-2.832 2.459-.728 0-1.31-.24-1.685-.695-.37-.45-.51-1.093-.393-1.808.226-1.458 1.383-2.477 2.812-2.477.713 0 1.291.242 1.673.701.384.462.535 1.109.425 1.82z"/><path id="7ottg" d="M411.09 733.51h-5.25a.735.735 0 0 0-.721.631l-2.124 13.8a.445.445 0 0 0 .433.519h2.507a.735.735 0 0 0 .72-.631l.573-3.723a.735.735 0 0 1 .72-.632h1.662c3.459 0 5.455-1.715 5.977-5.116.234-1.487.01-2.655-.67-3.473-.747-.9-2.07-1.375-3.827-1.375zm.606 5.035c-.287 1.927-1.727 1.927-3.119 1.927h-.792l.556-3.598a.441.441 0 0 1 .432-.378h.363c.948 0 1.843 0 2.304.553.277.33.36.82.256 1.496z"/><path id="7otta" d="M470.486 751.948V728.2H375.01v23.748z"/><path id="7otti" d="M392.694 734.233c.283-1.847-.002-3.104-.977-4.243-1.073-1.253-3.012-1.79-5.492-1.79h-7.201c-.507 0-.939.378-1.018.891l-2.998 19.49c-.06.384.23.732.61.732h4.446l-.307 1.994a.55.55 0 0 0 .534.64h3.747c.443 0 .82-.33.89-.78l.037-.194.706-4.588.045-.254c.07-.45.447-.78.89-.78h.56c3.63 0 6.473-1.512 7.304-5.883.347-1.827.168-3.352-.75-4.424a3.585 3.585 0 0 0-1.026-.81"/><path id="7ottj" d="M392.694 734.233c.283-1.847-.002-3.104-.977-4.243-1.073-1.253-3.012-1.79-5.492-1.79h-7.201c-.507 0-.939.378-1.018.891l-2.998 19.49c-.06.384.23.732.61.732h4.446l1.116-7.258-.034.227c.079-.513.507-.891 1.014-.891h2.113c4.149 0 7.398-1.728 8.347-6.726.028-.147.052-.29.074-.432"/><path id="7ottk" d="M382.38 734.258a.922.922 0 0 1 .5-.69.882.882 0 0 1 .39-.09h5.644c.67 0 1.293.045 1.863.139a7.989 7.989 0 0 1 .923.21 5.542 5.542 0 0 1 .994.406c.283-1.847-.002-3.104-.977-4.243-1.073-1.253-3.012-1.79-5.492-1.79h-7.201c-.507 0-.939.378-1.018.891l-2.998 19.49c-.06.384.23.732.61.732h4.446l2.316-15.055"/><clipPath id="7otth"><use xlink:href="#7otta"/></clipPath></defs><g><g opacity=".79" transform="translate(-375 -728)"><use fill="#fff" xlink:href="#7ottb"/></g><g opacity=".79" transform="translate(-375 -728)"><use fill="#fff" xlink:href="#7ottc"/></g><g opacity=".79" transform="translate(-375 -728)"><use fill="#fff" xlink:href="#7ottd"/></g><g opacity=".79" transform="translate(-375 -728)"><use fill="#fff" xlink:href="#7otte"/></g><g opacity=".79" transform="translate(-375 -728)"><use fill="#fff" xlink:href="#7ottf"/></g><g opacity=".79" transform="translate(-375 -728)"><use fill="#fff" xlink:href="#7ottg"/></g><g opacity=".79" transform="translate(-375 -728)"/><g clip-path="url(#7otth)" opacity=".51" transform="translate(-375 -728)"><use fill="#fff" xlink:href="#7otti"/></g><g clip-path="url(#7otth)" opacity=".36" transform="translate(-375 -728)"><use fill="#45298d" xlink:href="#7ottj"/></g><g clip-path="url(#7otth)" opacity=".79" transform="translate(-375 -728)"><use fill="#fff" xlink:href="#7ottk"/></g></g></svg>