<svg xmlns="http://www.w3.org/2000/svg" xmlns:xlink="http://www.w3.org/1999/xlink" width="70" height="70" viewBox="0 0 70 70"><defs><path id="nu5ea" d="M1335 1076c0-19.33 15.67-35 35-35s35 15.67 35 35-15.67 35-35 35-35-15.67-35-35z"/><path id="nu5eb" d="M1371.345 1077.091v-1.98a4.025 4.025 0 0 0 2.923-3.866v-1.461c0-.606-.49-1.096-1.096-1.096h-4.75v-.366a1.83 1.83 0 0 1 1.827-1.827h2.923a1.096 1.096 0 1 0 0-2.192h-1.827v-1.827a1.096 1.096 0 0 0-2.192 0v1.98a4.026 4.026 0 0 0-2.923 3.866v1.462c0 .605.49 1.096 1.096 1.096h4.75v.365a1.83 1.83 0 0 1-1.827 1.827h-2.923a1.096 1.096 0 1 0 0 2.192h1.827v1.827a1.096 1.096 0 0 0 2.192 0z"/><path id="nu5ec" d="M1374.27 1092.808h-2.85c.537-3.916 3.904-6.943 7.965-6.943h2.848c-.536 3.916-3.903 6.943-7.964 6.943zm-8.04 0c-4.06 0-7.427-3.027-7.963-6.943h2.848c4.061 0 7.428 3.027 7.964 6.943zm-6.576-23.02c0-5.842 4.756-10.596 10.601-10.596 5.845 0 10.601 4.754 10.601 10.597 0 5.842-4.756 10.596-10.601 10.596-5.845 0-10.601-4.754-10.601-10.596zm19.73 13.885c-3.257 0-6.163 1.53-8.038 3.91v-5.053c6.54-.559 11.693-6.06 11.693-12.741 0-7.052-5.737-12.789-12.789-12.789s-12.789 5.737-12.789 12.789c0 6.682 5.153 12.182 11.693 12.74v5.053a10.218 10.218 0 0 0-8.039-3.91h-4.019c-.605 0-1.096.492-1.096 1.097 0 5.642 4.59 10.231 10.23 10.231h8.04c5.64 0 10.23-4.59 10.23-10.23 0-.606-.49-1.097-1.096-1.097z"/></defs><g><g transform="translate(-1335 -1041)"><g><use fill="#eee8f8" xlink:href="#nu5ea"/></g><g><g><use fill="#6832c2" xlink:href="#nu5eb"/></g><g><use fill="#6832c2" xlink:href="#nu5ec"/></g></g></g></g></svg>