<svg xmlns="http://www.w3.org/2000/svg" xmlns:xlink="http://www.w3.org/1999/xlink" width="70" height="70" viewBox="0 0 70 70"><defs><path id="cplta" d="M920 1076c0-19.33 15.67-35 35-35s35 15.67 35 35-15.67 35-35 35-35-15.67-35-35z"/><path id="cpltb" d="M964.346 1091.913v-24.223c0-.54-.411-.983-.938-1.033l3.361-5.6 3.361 5.6c-.526.05-.938.494-.938 1.033v24.223zm-11.769.01v-16.27h4.836v16.27zm-11.77 0v-10.73h4.837v10.73zm31.155 0h-.693v-23.192h.693a1.039 1.039 0 0 0 .89-1.573l-5.192-8.654a1.039 1.039 0 0 0-1.781 0l-5.192 8.654a1.038 1.038 0 0 0 .89 1.573h.692v23.192H959.5v-17.308c0-.573-.465-1.038-1.038-1.038h-6.924c-.573 0-1.038.465-1.038 1.038v17.308h-2.77v-11.77c0-.573-.464-1.038-1.038-1.038h-6.923c-.573 0-1.038.465-1.038 1.039v11.769h-.693a1.039 1.039 0 0 0 0 2.077h33.924a1.039 1.039 0 0 0 0-2.077z"/><path id="cpltc" d="M946.69 1068.384h-3.462a1.038 1.038 0 1 0 0 2.077h1.731v1.384a1.039 1.039 0 0 0 2.077 0v-1.404a3.12 3.12 0 0 0 2.77-3.096v-1.038c0-.574-.466-1.039-1.04-1.039h-4.5a1.04 1.04 0 0 1 1.04-1.038h3.46a1.038 1.038 0 1 0 0-2.077h-1.73v-1.385a1.038 1.038 0 1 0-2.077 0v1.405a3.12 3.12 0 0 0-2.769 3.095v1.039c0 .573.465 1.038 1.038 1.038h4.5a1.04 1.04 0 0 1-1.038 1.039z"/></defs><g><g transform="translate(-920 -1041)"><g><use fill="#eee8f8" xlink:href="#cplta"/></g><g><g><use fill="#6832c2" xlink:href="#cpltb"/></g><g><use fill="#6832c2" xlink:href="#cpltc"/></g></g></g></g></svg>